<svg width="11" height="13" viewBox="0 0 11 13" fill="none" xmlns="http://www.w3.org/2000/svg">
<path d="M1.29412 13C0.938235 13 0.633471 12.8728 0.379823 12.6184C0.126608 12.3636 0 12.0575 0 11.7V2.6H1.29412V11.7H8.41177V13H1.29412ZM3.88235 10.4C3.52647 10.4 3.22192 10.2728 2.96871 10.0184C2.71506 9.76365 2.58824 9.4575 2.58824 9.1V1.3C2.58824 0.9425 2.71506 0.63635 2.96871 0.38155C3.22192 0.127183 3.52647 0 3.88235 0H9.70588C10.0618 0 10.3665 0.127183 10.6202 0.38155C10.8734 0.63635 11 0.9425 11 1.3V9.1C11 9.4575 10.8734 9.76365 10.6202 10.0184C10.3665 10.2728 10.0618 10.4 9.70588 10.4H3.88235ZM3.88235 9.1H9.70588V1.3H3.88235V9.1ZM3.88235 9.1V1.3V9.1Z" fill="#444" fill-opacity="1"/>
</svg>
