<?xml version="1.0" encoding="utf-8"?>
<!-- Generator: Adobe Illustrator 26.5.0, SVG Export Plug-In . SVG Version: 6.00 Build 0)  -->
<svg version="1.1" id="Laag_1" xmlns="http://www.w3.org/2000/svg" xmlns:xlink="http://www.w3.org/1999/xlink" x="0px" y="0px"
	 viewBox="0 0 191.3 80" style="enable-background:new 0 0 191.3 80;" xml:space="preserve">
<style type="text/css">
	.st0{fill:url(#SVGID_1_);}
</style>
<radialGradient id="SVGID_1_" cx="95.6383" cy="42.095" r="69.4975" gradientTransform="matrix(1 0 0 -1 0 82)" gradientUnits="userSpaceOnUse">
	<stop  offset="0.35" style="stop-color:#E5316C"/>
	<stop  offset="1" style="stop-color:#B6006C"/>
</radialGradient>
<path class="st0" d="M123.4,20.2l-7.6,13.1c-1.6-4.8-4.8-9.1-9.6-11.8c-2-1.1-4-1.9-6.1-2.4l-4.5-9l-4.5,9
	c-5.7,1.2-10.8,4.7-13.9,10.1L55.6,66.8C52,72.9,44.2,75,38.1,71.5c-2-1.2-3.6-2.8-4.7-4.7L4.3,16.2c-1.8-3.1-0.7-6.9,2.3-8.7
	s6.9-0.7,8.7,2.3l28.6,49.5c0.3,0.5,1,0.5,1.2,0l21-36.4c9.4-16.3,30.2-21.8,46.5-12.4C117,13,120.6,16.3,123.4,20.2z M187,63.6
	L157.8,13c-1.1-1.9-2.6-3.5-4.7-4.7c-6.1-3.5-13.9-1.4-17.4,4.7L114,50.5c-3.1,5.4-8.2,8.9-13.9,10.1l-4.5,9l-4.5-9
	C89,60.2,87,59.4,85,58.3c-4.7-2.7-8-7-9.6-11.8l-7.5,13.1c2.8,3.9,6.3,7.2,10.7,9.8c16.3,9.4,37.1,3.8,46.5-12.5l21-36.4
	c0.3-0.5,0.9-0.5,1.2,0L176,70c1.8,3.1,5.7,4.1,8.7,2.3C187.7,70.5,188.8,66.6,187,63.6z"/>
</svg>
